<?xml version="1.0" encoding="utf-8"?>
<!-- Generator: Adobe Illustrator 23.0.5, SVG Export Plug-In . SVG Version: 6.00 Build 0)  -->
<svg version="1.1" id="Слой_1" focusable="false"
	 xmlns="http://www.w3.org/2000/svg" xmlns:xlink="http://www.w3.org/1999/xlink" x="0px" y="0px" viewBox="0 0 512 448.1"
	 style="enable-background:new 0 0 512 448.1;" xml:space="preserve">
<style type="text/css">
	.st0{fill:#E74C3C;}
</style>
<path class="st0" d="M458.4,32.3C400.6-16.3,311.3-9,256,47.3C200.7-9,111.4-16.4,53.6,32.3C-21.6,95.6-10.6,198.8,43,253.5
	l175.4,178.7c10,10.2,23.4,15.9,37.6,15.9c14.3,0,27.6-5.6,37.6-15.8L469,253.6C522.5,198.9,533.7,95.7,458.4,32.3z M434.8,219.8
	L259.4,398.5c-2.4,2.4-4.4,2.4-6.8,0L77.2,219.8c-36.5-37.2-43.9-107.6,7.3-150.7c38.9-32.7,98.9-27.8,136.5,10.5l35,35.7l35-35.7
	c37.8-38.5,97.8-43.2,136.5-10.6C478.6,112.1,471,182.9,434.8,219.8L434.8,219.8z"/>
</svg>
