<?xml version="1.0" encoding="utf-8"?>
<!-- Generator: Adobe Illustrator 23.0.5, SVG Export Plug-In . SVG Version: 6.00 Build 0)  -->
<svg version="1.1" id="Layer_1" xmlns="http://www.w3.org/2000/svg" xmlns:xlink="http://www.w3.org/1999/xlink" x="0px" y="0px"
	 viewBox="0 0 510.8 224.4" style="enable-background:new 0 0 510.8 224.4;" xml:space="preserve">
<style type="text/css">
	.st0{fill:#E74C3C;}
</style>
<path class="st0" d="M510.8,99.4c-2.7-26.8-15.8-50.5-35.9-69.3C454.1,10.7,427.1,0,398.6,0C348,0,304.4,33.4,290.8,81.6
	c0,0-25.3-0.2-38.4-0.2s-33,0.2-33,0.2C205.7,33.4,162.1,0,111.6,0C83.2,0,56,10.6,35.2,30C15.1,48.8,2.7,74.4,0,101.2v21.9
	c2.7,26.8,15.1,52.4,35.2,71.1c20.8,19.4,47.9,30.1,76.4,30.1c61.9,0,112.2-50.2,112.2-112.1c0-0.1,0-0.1,0-0.1l0,0
	c0,0.1-4.5,0.3,27.5,0.1c36-0.2,35.1-0.1,35.1-0.1l0,0c0,0,0,0,0,0.1c0,61.9,50.3,112.1,112.2,112.1c28.4,0,55.5-10.6,76.4-30.1
	c20.1-18.8,32.5-44.5,35.2-71.3 M401.3,187.2c-42.7,1.5-77.8-32.8-77.8-75c0-41.4,33.7-75.1,75.1-75.1c42.5,0,76.8,35.5,75,78.3
	C472,154.4,440.3,185.9,401.3,187.2z M114.3,187.2c-42.7,1.5-77.8-32.8-77.8-75c0-41.4,33.7-75.1,75.1-75.1
	c42.5,0,76.8,35.5,75,78.3C185,154.4,153.3,185.9,114.3,187.2z"/>
</svg>